<svg width="390" height="361" viewBox="0 0 390 361" fill="none" xmlns="http://www.w3.org/2000/svg">
<path d="M12.5317 13.796H28.4463M20.489 5.48776V22.4998" stroke="#C1C1C1" stroke-width="2.74388" stroke-linecap="round" stroke-linejoin="round"/>
<path d="M41.6169 13.796H57.5315M49.5742 5.48776V22.4998" stroke="#C1C1C1" stroke-width="2.74388" stroke-linecap="round" stroke-linejoin="round"/>
<path d="M70.7021 13.796H86.6167M78.6594 5.48776V22.4998" stroke="#C1C1C1" stroke-width="2.74388" stroke-linecap="round" stroke-linejoin="round"/>
<path d="M99.7871 13.796H115.702M107.744 5.48776V22.4998" stroke="#C1C1C1" stroke-width="2.74388" stroke-linecap="round" stroke-linejoin="round"/>
<path d="M128.872 13.796H144.787M136.83 5.48776V22.4998" stroke="#C1C1C1" stroke-width="2.74388" stroke-linecap="round" stroke-linejoin="round"/>
<path d="M157.958 13.796H173.872M165.915 5.48776V22.4998" stroke="#C1C1C1" stroke-width="2.74388" stroke-linecap="round" stroke-linejoin="round"/>
<path d="M187.043 13.796H202.957M195 5.48776V22.4998" stroke="#C1C1C1" stroke-width="2.74388" stroke-linecap="round" stroke-linejoin="round"/>
<path d="M216.128 13.796H232.042M224.085 5.48776V22.4998" stroke="#C1C1C1" stroke-width="2.74388" stroke-linecap="round" stroke-linejoin="round"/>
<path d="M245.213 13.796H261.128M253.17 5.48776V22.4998" stroke="#C1C1C1" stroke-width="2.74388" stroke-linecap="round" stroke-linejoin="round"/>
<path d="M274.298 13.796H290.213M282.256 5.48776V22.4998" stroke="#C1C1C1" stroke-width="2.74388" stroke-linecap="round" stroke-linejoin="round"/>
<path d="M303.383 13.796H319.298M311.341 5.48776V22.4998" stroke="#C1C1C1" stroke-width="2.74388" stroke-linecap="round" stroke-linejoin="round"/>
<path d="M332.469 13.796H348.383M340.426 5.48776V22.4998" stroke="#C1C1C1" stroke-width="2.74388" stroke-linecap="round" stroke-linejoin="round"/>
<path d="M361.554 13.796H377.468M369.511 5.48776V22.4998" stroke="#C1C1C1" stroke-width="2.74388" stroke-linecap="round" stroke-linejoin="round"/>
<path d="M12.5317 43.9787H28.4463M20.489 35.6705V52.6826" stroke="#C1C1C1" stroke-width="2.74388" stroke-linecap="round" stroke-linejoin="round"/>
<path d="M41.6169 43.9787H57.5315M49.5742 35.6705V52.6826" stroke="#C1C1C1" stroke-width="2.74388" stroke-linecap="round" stroke-linejoin="round"/>
<path d="M70.7021 43.9787H86.6167M78.6594 35.6705V52.6826" stroke="#C1C1C1" stroke-width="2.74388" stroke-linecap="round" stroke-linejoin="round"/>
<path d="M99.7871 43.9787H115.702M107.744 35.6705V52.6826" stroke="#C1C1C1" stroke-width="2.74388" stroke-linecap="round" stroke-linejoin="round"/>
<path d="M128.872 43.9787H144.787M136.83 35.6705V52.6826" stroke="#C1C1C1" stroke-width="2.74388" stroke-linecap="round" stroke-linejoin="round"/>
<path d="M157.958 43.9787H173.872M165.915 35.6705V52.6826" stroke="#C1C1C1" stroke-width="2.74388" stroke-linecap="round" stroke-linejoin="round"/>
<path d="M187.043 43.9787H202.957M195 35.6705V52.6826" stroke="#C1C1C1" stroke-width="2.74388" stroke-linecap="round" stroke-linejoin="round"/>
<path d="M216.128 43.9787H232.042M224.085 35.6705V52.6826" stroke="#C1C1C1" stroke-width="2.74388" stroke-linecap="round" stroke-linejoin="round"/>
<path d="M245.213 43.9787H261.128M253.17 35.6705V52.6826" stroke="#C1C1C1" stroke-width="2.74388" stroke-linecap="round" stroke-linejoin="round"/>
<path d="M274.298 43.9787H290.213M282.256 35.6705V52.6826" stroke="#C1C1C1" stroke-width="2.74388" stroke-linecap="round" stroke-linejoin="round"/>
<path d="M303.383 43.9787H319.298M311.341 35.6705V52.6826" stroke="#C1C1C1" stroke-width="2.74388" stroke-linecap="round" stroke-linejoin="round"/>
<path d="M332.469 43.9787H348.383M340.426 35.6705V52.6826" stroke="#C1C1C1" stroke-width="2.74388" stroke-linecap="round" stroke-linejoin="round"/>
<path d="M361.554 43.9787H377.468M369.511 35.6705V52.6826" stroke="#C1C1C1" stroke-width="2.74388" stroke-linecap="round" stroke-linejoin="round"/>
<path d="M12.5317 74.1615H28.4463M20.489 65.8532V82.8653" stroke="#C1C1C1" stroke-width="2.74388" stroke-linecap="round" stroke-linejoin="round"/>
<path d="M41.6169 74.1615H57.5315M49.5742 65.8532V82.8653" stroke="#C1C1C1" stroke-width="2.74388" stroke-linecap="round" stroke-linejoin="round"/>
<path d="M70.7021 74.1615H86.6167M78.6594 65.8532V82.8653" stroke="#C1C1C1" stroke-width="2.74388" stroke-linecap="round" stroke-linejoin="round"/>
<path d="M99.7871 74.1615H115.702M107.744 65.8532V82.8653" stroke="#C1C1C1" stroke-width="2.74388" stroke-linecap="round" stroke-linejoin="round"/>
<path d="M128.872 74.1615H144.787M136.83 65.8532V82.8653" stroke="#C1C1C1" stroke-width="2.74388" stroke-linecap="round" stroke-linejoin="round"/>
<path d="M157.958 74.1615H173.872M165.915 65.8532V82.8653" stroke="#C1C1C1" stroke-width="2.74388" stroke-linecap="round" stroke-linejoin="round"/>
<path d="M187.043 74.1615H202.957M195 65.8532V82.8653" stroke="#C1C1C1" stroke-width="2.74388" stroke-linecap="round" stroke-linejoin="round"/>
<path d="M216.128 74.1615H232.042M224.085 65.8532V82.8653" stroke="#C1C1C1" stroke-width="2.74388" stroke-linecap="round" stroke-linejoin="round"/>
<path d="M245.213 74.1615H261.128M253.17 65.8532V82.8653" stroke="#C1C1C1" stroke-width="2.74388" stroke-linecap="round" stroke-linejoin="round"/>
<path d="M274.298 74.1615H290.213M282.256 65.8532V82.8653" stroke="#C1C1C1" stroke-width="2.74388" stroke-linecap="round" stroke-linejoin="round"/>
<path d="M303.383 74.1615H319.298M311.341 65.8532V82.8653" stroke="#C1C1C1" stroke-width="2.74388" stroke-linecap="round" stroke-linejoin="round"/>
<path d="M332.469 74.1615H348.383M340.426 65.8532V82.8653" stroke="#C1C1C1" stroke-width="2.74388" stroke-linecap="round" stroke-linejoin="round"/>
<path d="M361.554 74.1615H377.468M369.511 65.8532V82.8653" stroke="#C1C1C1" stroke-width="2.74388" stroke-linecap="round" stroke-linejoin="round"/>
<path d="M12.5317 104.344H28.4463M20.489 96.0359V113.048" stroke="#C1C1C1" stroke-width="2.74388" stroke-linecap="round" stroke-linejoin="round"/>
<path d="M41.6169 104.344H57.5315M49.5742 96.0359V113.048" stroke="#C1C1C1" stroke-width="2.74388" stroke-linecap="round" stroke-linejoin="round"/>
<path d="M70.7021 104.344H86.6167M78.6594 96.0359V113.048" stroke="#C1C1C1" stroke-width="2.74388" stroke-linecap="round" stroke-linejoin="round"/>
<path d="M99.7871 104.344H115.702M107.744 96.0359V113.048" stroke="#C1C1C1" stroke-width="2.74388" stroke-linecap="round" stroke-linejoin="round"/>
<path d="M128.872 104.344H144.787M136.83 96.0359V113.048" stroke="#C1C1C1" stroke-width="2.74388" stroke-linecap="round" stroke-linejoin="round"/>
<path d="M157.958 104.344H173.872M165.915 96.0359V113.048" stroke="#C1C1C1" stroke-width="2.74388" stroke-linecap="round" stroke-linejoin="round"/>
<path d="M187.043 104.344H202.957M195 96.0359V113.048" stroke="#C1C1C1" stroke-width="2.74388" stroke-linecap="round" stroke-linejoin="round"/>
<path d="M216.128 104.344H232.042M224.085 96.0359V113.048" stroke="#C1C1C1" stroke-width="2.74388" stroke-linecap="round" stroke-linejoin="round"/>
<path d="M245.213 104.344H261.128M253.17 96.0359V113.048" stroke="#C1C1C1" stroke-width="2.74388" stroke-linecap="round" stroke-linejoin="round"/>
<path d="M274.298 104.344H290.213M282.256 96.0359V113.048" stroke="#C1C1C1" stroke-width="2.74388" stroke-linecap="round" stroke-linejoin="round"/>
<path d="M303.383 104.344H319.298M311.341 96.0359V113.048" stroke="#C1C1C1" stroke-width="2.74388" stroke-linecap="round" stroke-linejoin="round"/>
<path d="M332.469 104.344H348.383M340.426 96.0359V113.048" stroke="#C1C1C1" stroke-width="2.74388" stroke-linecap="round" stroke-linejoin="round"/>
<path d="M361.554 104.344H377.468M369.511 96.0359V113.048" stroke="#C1C1C1" stroke-width="2.74388" stroke-linecap="round" stroke-linejoin="round"/>
<path d="M12.5317 134.527H28.4463M20.489 126.219V143.231" stroke="#C1C1C1" stroke-width="2.74388" stroke-linecap="round" stroke-linejoin="round"/>
<path d="M41.6169 134.527H57.5315M49.5742 126.219V143.231" stroke="#EEEEEE" stroke-width="2.74388" stroke-linecap="round" stroke-linejoin="round"/>
<path d="M70.7021 134.527H86.6167M78.6594 126.219V143.231" stroke="#EEEEEE" stroke-width="2.74388" stroke-linecap="round" stroke-linejoin="round"/>
<path d="M99.7871 134.527H115.702M107.744 126.219V143.231" stroke="#EEEEEE" stroke-width="2.74388" stroke-linecap="round" stroke-linejoin="round"/>
<path d="M128.872 134.527H144.787M136.83 126.219V143.231" stroke="#EEEEEE" stroke-width="2.74388" stroke-linecap="round" stroke-linejoin="round"/>
<path d="M157.958 134.527H173.872M165.915 126.219V143.231" stroke="#EEEEEE" stroke-width="2.74388" stroke-linecap="round" stroke-linejoin="round"/>
<path d="M187.043 134.527H202.957M195 126.219V143.231" stroke="#EEEEEE" stroke-width="2.74388" stroke-linecap="round" stroke-linejoin="round"/>
<path d="M216.128 134.527H232.042M224.085 126.219V143.231" stroke="#EEEEEE" stroke-width="2.74388" stroke-linecap="round" stroke-linejoin="round"/>
<path d="M245.213 134.527H261.128M253.17 126.219V143.231" stroke="#EEEEEE" stroke-width="2.74388" stroke-linecap="round" stroke-linejoin="round"/>
<path d="M274.298 134.527H290.213M282.256 126.219V143.231" stroke="#EEEEEE" stroke-width="2.74388" stroke-linecap="round" stroke-linejoin="round"/>
<path d="M303.383 134.527H319.298M311.341 126.219V143.231" stroke="#EEEEEE" stroke-width="2.74388" stroke-linecap="round" stroke-linejoin="round"/>
<path d="M332.469 134.527H348.383M340.426 126.219V143.231" stroke="#EEEEEE" stroke-width="2.74388" stroke-linecap="round" stroke-linejoin="round"/>
<path d="M361.554 134.527H377.468M369.511 126.219V143.231" stroke="#C1C1C1" stroke-width="2.74388" stroke-linecap="round" stroke-linejoin="round"/>
<path d="M12.5317 164.71H28.4463M20.489 156.401V173.413" stroke="#C1C1C1" stroke-width="2.74388" stroke-linecap="round" stroke-linejoin="round"/>
<path d="M41.6169 164.71H57.5315M49.5742 156.401V173.413" stroke="#EEEEEE" stroke-width="2.74388" stroke-linecap="round" stroke-linejoin="round"/>
<path d="M70.7021 164.71H86.6167M78.6594 156.401V173.413" stroke="#EEEEEE" stroke-width="2.74388" stroke-linecap="round" stroke-linejoin="round"/>
<path d="M99.7871 164.71H115.702M107.744 156.401V173.413" stroke="#EEEEEE" stroke-width="2.74388" stroke-linecap="round" stroke-linejoin="round"/>
<path d="M128.872 164.71H144.787M136.83 156.401V173.413" stroke="#EEEEEE" stroke-width="2.74388" stroke-linecap="round" stroke-linejoin="round"/>
<path d="M157.958 164.71H173.872M165.915 156.401V173.413" stroke="#EEEEEE" stroke-width="2.74388" stroke-linecap="round" stroke-linejoin="round"/>
<path d="M187.043 164.71H202.957M195 156.401V173.413" stroke="#EEEEEE" stroke-width="2.74388" stroke-linecap="round" stroke-linejoin="round"/>
<path d="M216.128 164.71H232.042M224.085 156.401V173.413" stroke="#EEEEEE" stroke-width="2.74388" stroke-linecap="round" stroke-linejoin="round"/>
<path d="M245.213 164.71H261.128M253.17 156.401V173.413" stroke="#EEEEEE" stroke-width="2.74388" stroke-linecap="round" stroke-linejoin="round"/>
<path d="M274.298 164.71H290.213M282.256 156.401V173.413" stroke="#EEEEEE" stroke-width="2.74388" stroke-linecap="round" stroke-linejoin="round"/>
<path d="M303.383 164.71H319.298M311.341 156.401V173.413" stroke="#EEEEEE" stroke-width="2.74388" stroke-linecap="round" stroke-linejoin="round"/>
<path d="M332.469 164.71H348.383M340.426 156.401V173.413" stroke="#EEEEEE" stroke-width="2.74388" stroke-linecap="round" stroke-linejoin="round"/>
<path d="M361.554 164.71H377.468M369.511 156.401V173.413" stroke="#C1C1C1" stroke-width="2.74388" stroke-linecap="round" stroke-linejoin="round"/>
<path d="M12.5317 194.892H28.4463M20.489 186.584V203.596" stroke="#C1C1C1" stroke-width="2.74388" stroke-linecap="round" stroke-linejoin="round"/>
<path d="M41.6169 194.892H57.5315M49.5742 186.584V203.596" stroke="#C1C1C1" stroke-width="2.74388" stroke-linecap="round" stroke-linejoin="round"/>
<path d="M70.7021 194.892H86.6167M78.6594 186.584V203.596" stroke="#C1C1C1" stroke-width="2.74388" stroke-linecap="round" stroke-linejoin="round"/>
<path d="M99.7871 194.892H115.702M107.744 186.584V203.596" stroke="#C1C1C1" stroke-width="2.74388" stroke-linecap="round" stroke-linejoin="round"/>
<path d="M128.872 194.892H144.787M136.83 186.584V203.596" stroke="#C1C1C1" stroke-width="2.74388" stroke-linecap="round" stroke-linejoin="round"/>
<path d="M157.958 194.892H173.872M165.915 186.584V203.596" stroke="#C1C1C1" stroke-width="2.74388" stroke-linecap="round" stroke-linejoin="round"/>
<path d="M187.043 194.892H202.957M195 186.584V203.596" stroke="#C1C1C1" stroke-width="2.74388" stroke-linecap="round" stroke-linejoin="round"/>
<path d="M216.128 194.892H232.042M224.085 186.584V203.596" stroke="#C1C1C1" stroke-width="2.74388" stroke-linecap="round" stroke-linejoin="round"/>
<path d="M245.213 194.892H261.128M253.17 186.584V203.596" stroke="#C1C1C1" stroke-width="2.74388" stroke-linecap="round" stroke-linejoin="round"/>
<path d="M274.298 194.892H290.213M282.256 186.584V203.596" stroke="#C1C1C1" stroke-width="2.74388" stroke-linecap="round" stroke-linejoin="round"/>
<path d="M303.383 194.892H319.298M311.341 186.584V203.596" stroke="#C1C1C1" stroke-width="2.74388" stroke-linecap="round" stroke-linejoin="round"/>
<path d="M332.469 194.892H348.383M340.426 186.584V203.596" stroke="#C1C1C1" stroke-width="2.74388" stroke-linecap="round" stroke-linejoin="round"/>
<path d="M361.554 194.892H377.468M369.511 186.584V203.596" stroke="#C1C1C1" stroke-width="2.74388" stroke-linecap="round" stroke-linejoin="round"/>
<path d="M12.5317 225.075H28.4463M20.489 216.767V233.779" stroke="#C1C1C1" stroke-width="2.74388" stroke-linecap="round" stroke-linejoin="round"/>
<path d="M41.6169 225.075H57.5315M49.5742 216.767V233.779" stroke="#C1C1C1" stroke-width="2.74388" stroke-linecap="round" stroke-linejoin="round"/>
<path d="M70.7021 225.075H86.6167M78.6594 216.767V233.779" stroke="#C1C1C1" stroke-width="2.74388" stroke-linecap="round" stroke-linejoin="round"/>
<path d="M99.7871 225.075H115.702M107.744 216.767V233.779" stroke="#C1C1C1" stroke-width="2.74388" stroke-linecap="round" stroke-linejoin="round"/>
<path d="M128.872 225.075H144.787M136.83 216.767V233.779" stroke="#C1C1C1" stroke-width="2.74388" stroke-linecap="round" stroke-linejoin="round"/>
<path d="M157.958 225.075H173.872M165.915 216.767V233.779" stroke="#C1C1C1" stroke-width="2.74388" stroke-linecap="round" stroke-linejoin="round"/>
<path d="M187.043 225.075H202.957M195 216.767V233.779" stroke="#C1C1C1" stroke-width="2.74388" stroke-linecap="round" stroke-linejoin="round"/>
<path d="M216.128 225.075H232.042M224.085 216.767V233.779" stroke="#C1C1C1" stroke-width="2.74388" stroke-linecap="round" stroke-linejoin="round"/>
<path d="M245.213 225.075H261.128M253.17 216.767V233.779" stroke="#C1C1C1" stroke-width="2.74388" stroke-linecap="round" stroke-linejoin="round"/>
<path d="M274.298 225.075H290.213M282.256 216.767V233.779" stroke="#C1C1C1" stroke-width="2.74388" stroke-linecap="round" stroke-linejoin="round"/>
<path d="M303.383 225.075H319.298M311.341 216.767V233.779" stroke="#C1C1C1" stroke-width="2.74388" stroke-linecap="round" stroke-linejoin="round"/>
<path d="M332.469 225.075H348.383M340.426 216.767V233.779" stroke="#C1C1C1" stroke-width="2.74388" stroke-linecap="round" stroke-linejoin="round"/>
<path d="M361.554 225.075H377.468M369.511 216.767V233.779" stroke="#C1C1C1" stroke-width="2.74388" stroke-linecap="round" stroke-linejoin="round"/>
<path d="M12.5317 255.258H28.4463M20.489 246.95V263.962" stroke="#C1C1C1" stroke-width="2.74388" stroke-linecap="round" stroke-linejoin="round"/>
<path d="M41.6169 255.258H57.5315M49.5742 246.95V263.962" stroke="#C1C1C1" stroke-width="2.74388" stroke-linecap="round" stroke-linejoin="round"/>
<path d="M70.7021 255.258H86.6167M78.6594 246.95V263.962" stroke="#C1C1C1" stroke-width="2.74388" stroke-linecap="round" stroke-linejoin="round"/>
<path d="M99.7871 255.258H115.702M107.744 246.95V263.962" stroke="#C1C1C1" stroke-width="2.74388" stroke-linecap="round" stroke-linejoin="round"/>
<path d="M128.872 255.258H144.787M136.83 246.95V263.962" stroke="#C1C1C1" stroke-width="2.74388" stroke-linecap="round" stroke-linejoin="round"/>
<path d="M157.958 255.258H173.872M165.915 246.95V263.962" stroke="#C1C1C1" stroke-width="2.74388" stroke-linecap="round" stroke-linejoin="round"/>
<path d="M187.043 255.258H202.957M195 246.95V263.962" stroke="#C1C1C1" stroke-width="2.74388" stroke-linecap="round" stroke-linejoin="round"/>
<path d="M216.128 255.258H232.042M224.085 246.95V263.962" stroke="#C1C1C1" stroke-width="2.74388" stroke-linecap="round" stroke-linejoin="round"/>
<path d="M245.213 255.258H261.128M253.17 246.95V263.962" stroke="#C1C1C1" stroke-width="2.74388" stroke-linecap="round" stroke-linejoin="round"/>
<path d="M274.298 255.258H290.213M282.256 246.95V263.962" stroke="#C1C1C1" stroke-width="2.74388" stroke-linecap="round" stroke-linejoin="round"/>
<path d="M303.383 255.258H319.298M311.341 246.95V263.962" stroke="#C1C1C1" stroke-width="2.74388" stroke-linecap="round" stroke-linejoin="round"/>
<path d="M332.469 255.258H348.383M340.426 246.95V263.962" stroke="#C1C1C1" stroke-width="2.74388" stroke-linecap="round" stroke-linejoin="round"/>
<path d="M361.554 255.258H377.468M369.511 246.95V263.962" stroke="#C1C1C1" stroke-width="2.74388" stroke-linecap="round" stroke-linejoin="round"/>
<path d="M12.5317 285.441H28.4463M20.489 277.132V294.144" stroke="#C1C1C1" stroke-width="2.74388" stroke-linecap="round" stroke-linejoin="round"/>
<path d="M41.6169 285.441H57.5315M49.5742 277.132V294.144" stroke="#C1C1C1" stroke-width="2.74388" stroke-linecap="round" stroke-linejoin="round"/>
<path d="M70.7021 285.441H86.6167M78.6594 277.132V294.144" stroke="#C1C1C1" stroke-width="2.74388" stroke-linecap="round" stroke-linejoin="round"/>
<path d="M99.7871 285.441H115.702M107.744 277.132V294.144" stroke="#C1C1C1" stroke-width="2.74388" stroke-linecap="round" stroke-linejoin="round"/>
<path d="M128.872 285.441H144.787M136.83 277.132V294.144" stroke="#C1C1C1" stroke-width="2.74388" stroke-linecap="round" stroke-linejoin="round"/>
<path d="M157.958 285.441H173.872M165.915 277.132V294.144" stroke="#C1C1C1" stroke-width="2.74388" stroke-linecap="round" stroke-linejoin="round"/>
<path d="M187.043 285.441H202.957M195 277.132V294.144" stroke="#C1C1C1" stroke-width="2.74388" stroke-linecap="round" stroke-linejoin="round"/>
<path d="M216.128 285.441H232.042M224.085 277.132V294.144" stroke="#C1C1C1" stroke-width="2.74388" stroke-linecap="round" stroke-linejoin="round"/>
<path d="M245.213 285.441H261.128M253.17 277.132V294.144" stroke="#C1C1C1" stroke-width="2.74388" stroke-linecap="round" stroke-linejoin="round"/>
<path d="M274.298 285.441H290.213M282.256 277.132V294.144" stroke="#C1C1C1" stroke-width="2.74388" stroke-linecap="round" stroke-linejoin="round"/>
<path d="M303.383 285.441H319.298M311.341 277.132V294.144" stroke="#C1C1C1" stroke-width="2.74388" stroke-linecap="round" stroke-linejoin="round"/>
<path d="M332.469 285.441H348.383M340.426 277.132V294.144" stroke="#C1C1C1" stroke-width="2.74388" stroke-linecap="round" stroke-linejoin="round"/>
<path d="M361.554 285.441H377.468M369.511 277.132V294.144" stroke="#C1C1C1" stroke-width="2.74388" stroke-linecap="round" stroke-linejoin="round"/>
<path d="M12.5317 315.623H28.4463M20.489 307.315V324.327" stroke="#C1C1C1" stroke-width="2.74388" stroke-linecap="round" stroke-linejoin="round"/>
<path d="M41.6169 315.623H57.5315M49.5742 307.315V324.327" stroke="#C1C1C1" stroke-width="2.74388" stroke-linecap="round" stroke-linejoin="round"/>
<path d="M70.7021 315.623H86.6167M78.6594 307.315V324.327" stroke="#C1C1C1" stroke-width="2.74388" stroke-linecap="round" stroke-linejoin="round"/>
<path d="M99.7871 315.623H115.702M107.744 307.315V324.327" stroke="#C1C1C1" stroke-width="2.74388" stroke-linecap="round" stroke-linejoin="round"/>
<path d="M128.872 315.623H144.787M136.83 307.315V324.327" stroke="#C1C1C1" stroke-width="2.74388" stroke-linecap="round" stroke-linejoin="round"/>
<path d="M157.958 315.623H173.872M165.915 307.315V324.327" stroke="#C1C1C1" stroke-width="2.74388" stroke-linecap="round" stroke-linejoin="round"/>
<path d="M187.043 315.623H202.957M195 307.315V324.327" stroke="#C1C1C1" stroke-width="2.74388" stroke-linecap="round" stroke-linejoin="round"/>
<path d="M216.128 315.623H232.042M224.085 307.315V324.327" stroke="#C1C1C1" stroke-width="2.74388" stroke-linecap="round" stroke-linejoin="round"/>
<path d="M245.213 315.623H261.128M253.17 307.315V324.327" stroke="#C1C1C1" stroke-width="2.74388" stroke-linecap="round" stroke-linejoin="round"/>
<path d="M274.298 315.623H290.213M282.256 307.315V324.327" stroke="#C1C1C1" stroke-width="2.74388" stroke-linecap="round" stroke-linejoin="round"/>
<path d="M303.383 315.623H319.298M311.341 307.315V324.327" stroke="#C1C1C1" stroke-width="2.74388" stroke-linecap="round" stroke-linejoin="round"/>
<path d="M332.469 315.623H348.383M340.426 307.315V324.327" stroke="#C1C1C1" stroke-width="2.74388" stroke-linecap="round" stroke-linejoin="round"/>
<path d="M361.554 315.623H377.468M369.511 307.315V324.327" stroke="#C1C1C1" stroke-width="2.74388" stroke-linecap="round" stroke-linejoin="round"/>
</svg>
